<?xml version="1.0" encoding="UTF-8"?>
<svg width="200" height="30" viewBox="0 0 80 10" version="1.1" xmlns="http://www.w3.org/2000/svg">
    <g transform="matrix(0.102845,0,0,0.102845,0,0)">
        <g transform="matrix(1,0,0,0.853635,16.9732,-139.285)">
            <path d="M158.616,188.589L116.021,188.988L116.021,178.102L158.099,178.102C166.557,178.102 172.988,178.954 177.389,180.659C181.791,182.364 185.309,185.374 187.941,189.689C190.574,194.005 191.89,198.774 191.89,203.996C191.89,210.728 189.711,216.403 185.352,221.021C180.993,225.638 174.261,228.573 165.155,229.825C168.478,231.421 171.002,232.997 172.729,234.55C176.397,237.916 179.871,242.124 183.151,247.173L199.658,273.002L183.863,273.002L171.304,253.258C167.636,247.562 164.615,243.203 162.242,240.182C159.868,237.161 157.193,235.431 155.316,234.222C153.438,233.014 150.877,231.989 148.935,231.514C147.511,231.212 144.639,230.914 143.145,230.86L128.58,230.86L128.58,273.002L116.021,273.002L116.021,219.802M116.021,219.802L155.574,219.985C161.314,219.985 165.802,219.392 169.039,218.205C172.275,217.018 174.735,215.119 176.418,212.508C178.102,209.897 178.943,207.06 178.943,203.996C178.943,199.507 177.314,195.817 174.056,192.926C170.797,190.035 165.651,188.589 158.616,188.589" fill="white" stroke="black" stroke-width="1.08"/>
            <path d="M224.904,244.26L214.482,273.002L201.147,273.002L237.592,178.102L251.122,178.102L289.963,273.002L275.656,273.002L264.587,244.26M264.587,244.26L260.703,234.032C260.703,234.032 253.571,215.41 250.798,207.75C248.439,201.231 245.533,193.207 244.066,188.071C242.857,194.156 240.962,200.249 238.952,206.197C236.362,213.857 232.004,224.754 228.53,234.032C225.056,243.311 224.904,244.26 224.904,244.26" fill="white" stroke="black" stroke-width="1.08"/>
            <path d="M312.555,189.301L299.996,189.175L299.996,178.102L335.794,178.102C342.095,178.102 346.907,178.404 350.23,179.008C354.891,179.785 358.797,181.263 361.947,183.442C365.098,185.622 367.633,188.675 369.553,192.602C371.474,196.53 372.434,200.845 372.434,205.549C372.434,213.619 369.866,220.449 364.731,226.038C359.595,231.626 350.317,234.421 336.895,234.421L312.555,234.421L312.555,273.002L299.996,273.002L299.996,223.075L312.555,223.222M312.555,223.222L337.089,223.222C345.203,223.222 350.964,221.711 354.373,218.69C357.783,215.669 359.487,211.418 359.487,205.938C359.487,201.967 358.484,198.569 356.477,195.742C354.47,192.915 351.827,191.049 348.547,190.142C346.432,189.581 342.527,189.301 336.83,189.301L312.555,189.301" fill="white" stroke="black" stroke-width="1.08"/>
            <path d="M412.569,273.002L412.569,189.301L381.303,189.301L381.303,178.102L456.524,178.102L456.524,189.301L425.128,189.301L425.128,273.002L412.569,273.002Z" fill="white" stroke="black" stroke-width="1.08"/>
            <path d="M531.681,178.102L544.239,178.102L544.239,232.932C544.239,242.469 543.16,250.043 541.002,255.654C538.845,261.264 534.95,265.828 529.318,269.345C523.686,272.862 516.295,274.621 507.146,274.621C498.256,274.621 490.984,273.089 485.331,270.025C479.677,266.961 475.642,262.526 473.226,256.722C470.809,250.917 469.6,242.987 469.6,232.932L469.6,178.102L482.159,178.102L482.159,232.867C482.159,241.11 482.925,247.184 484.457,251.09C485.989,254.995 488.622,258.006 492.355,260.12C496.088,262.235 500.651,263.292 506.046,263.292C515.281,263.292 521.863,261.199 525.79,257.013C529.717,252.827 531.681,244.778 531.681,232.867L531.681,178.102Z" fill="white" stroke="black" stroke-width="1.08"/>
            <g transform="matrix(-1,0,0,1.14211,1215.46,163.551)">
                <path d="M619.093,50.888C610.416,50.883 594.123,50.487 587.167,57.164C575.378,68.481 577.22,83.758 591.52,91.949C594.627,93.729 598.119,94.992 601.667,95.473C604.99,95.966 609.802,96.212 616.103,96.212L651.901,96.212L651.901,87.191L629.585,87.343L616.675,87.107C616.689,87.035 615.067,87.089 615.067,87.089C609.293,87.089 602.713,87.578 597.819,83.81C590.694,78.326 590.536,67.266 598.575,62.614C603.673,59.663 610.032,59.769 615.719,59.831L619.168,59.801L619.168,59.797C627.911,59.81 638.363,60.546 645.338,53.992C660.827,39.436 651.274,16.753 630.837,13.846C627.514,13.33 622.702,13.072 616.402,13.072L580.604,13.072L580.604,22.525L593.162,22.632L617.437,22.632L618.703,22.704C623.686,23.01 628.991,22.499 633.597,25.125C642.152,30.006 641.542,41.727 634.98,47.72C631.119,51.246 623.533,50.855 619.094,50.855L619.093,50.888Z" fill="white" stroke="black" stroke-width="1.01"/>
            </g>
        </g>
        <g transform="matrix(0.208054,0,0,0.155127,17.5757,7.50576)">
            <path d="M79.794,541.737L281.524,26.883L510.328,560.582L217.822,346.723L246.628,290.681L443.684,475.488L282.324,149.916L119.788,494.227L79.794,541.737Z" fill="white" stroke="black" stroke-width="5.45" stroke-linecap="round" stroke-miterlimit="1.5"/>
        </g>
    </g>
</svg>
