<?xml version="1.0" encoding="UTF-8"?>
<!-- Generated by Pixelmator Pro 3.7.1 -->
<svg width="1271" height="391" viewBox="0 0 1271 391" xmlns="http://www.w3.org/2000/svg">
    <g id="Group">
        <path id="Path" fill="#4f8dfd" fill-rule="evenodd" stroke="none" d="M 145 184 L 144 185 L 144 214 L 145 215 L 245 215 L 245 184 Z"/>
        <path id="path1" fill="#4f8dfd" fill-rule="evenodd" stroke="none" d="M 337 180 L 336 181 L 335 181 L 335 210 L 336 211 L 445 211 L 445 181 L 444 180 Z"/>
        <path id="path2" fill="#4f8dfd" fill-rule="evenodd" stroke="none" d="M 913 98 L 912 99 L 912 296 L 947 296 L 947 99 L 946 98 Z"/>
        <path id="path3" fill="#4f8dfd" fill-rule="evenodd" stroke="none" d="M 719 98 L 719 296 L 886 296 L 887 295 L 887 262 L 885 260 L 755 260 L 754 259 L 754 99 L 753 98 Z"/>
        <path id="path4" fill="#4f8dfd" fill-rule="evenodd" stroke="none" d="M 482 98 L 481 99 L 481 296 L 603 296 L 604 295 L 615 295 L 616 294 L 619 294 L 620 293 L 623 293 L 624 292 L 625 292 L 626 291 L 629 291 L 630 290 L 632 290 L 633 289 L 634 289 L 635 288 L 636 288 L 637 287 L 638 287 L 639 286 L 641 286 L 643 284 L 644 284 L 645 283 L 646 283 L 648 281 L 649 281 L 651 279 L 652 279 L 656 275 L 657 275 L 670 262 L 670 261 L 671 260 L 671 259 L 675 255 L 675 254 L 676 253 L 676 252 L 678 250 L 678 249 L 679 248 L 679 247 L 680 246 L 680 245 L 681 244 L 681 243 L 682 242 L 682 241 L 683 240 L 683 238 L 684 237 L 684 236 L 685 235 L 685 234 L 686 233 L 686 231 L 687 230 L 687 226 L 688 225 L 688 224 L 689 223 L 689 219 L 690 218 L 690 213 L 691 212 L 691 178 L 690 177 L 690 173 L 689 172 L 689 168 L 688 167 L 688 166 L 687 165 L 687 161 L 686 160 L 686 158 L 684 156 L 684 154 L 683 153 L 683 151 L 682 150 L 682 149 L 680 147 L 680 146 L 679 145 L 679 144 L 678 143 L 678 142 L 676 140 L 676 139 L 675 138 L 675 137 L 671 133 L 671 132 L 657 118 L 656 118 L 654 116 L 653 116 L 650 113 L 649 113 L 648 112 L 647 112 L 646 111 L 645 111 L 643 109 L 642 109 L 641 108 L 639 108 L 638 107 L 637 107 L 636 106 L 635 106 L 634 105 L 632 105 L 631 104 L 628 104 L 627 103 L 625 103 L 624 102 L 623 102 L 622 101 L 618 101 L 617 100 L 609 100 L 608 99 L 601 99 L 600 98 Z M 516 135 L 517 134 L 600 134 L 601 135 L 609 135 L 610 136 L 613 136 L 614 137 L 615 137 L 616 138 L 618 138 L 619 139 L 621 139 L 622 140 L 623 140 L 625 142 L 626 142 L 627 143 L 628 143 L 630 145 L 631 145 L 633 147 L 634 147 L 640 153 L 640 154 L 645 159 L 645 160 L 646 161 L 646 162 L 648 164 L 648 165 L 649 166 L 649 167 L 650 168 L 650 169 L 651 170 L 651 171 L 652 172 L 652 175 L 653 176 L 653 178 L 654 179 L 654 181 L 655 182 L 655 186 L 656 187 L 656 207 L 655 208 L 655 212 L 654 213 L 654 215 L 653 216 L 653 218 L 652 219 L 652 222 L 651 223 L 651 224 L 650 225 L 650 226 L 649 227 L 649 228 L 648 229 L 648 230 L 647 231 L 647 232 L 645 234 L 645 235 L 642 238 L 642 239 L 633 248 L 632 248 L 629 251 L 628 251 L 627 252 L 626 252 L 625 253 L 624 253 L 622 255 L 621 255 L 620 256 L 618 256 L 617 257 L 615 257 L 614 258 L 613 258 L 612 259 L 608 259 L 607 260 L 517 260 L 516 259 Z"/>
        <path id="path5" fill="#4f8dfd" fill-rule="evenodd" stroke="none" d="M 277 98 L 276 99 L 276 296 L 453 296 L 453 261 L 452 261 L 451 260 L 312 260 L 311 259 L 311 135 L 312 134 L 452 134 L 453 133 L 453 100 L 452 99 L 452 98 Z"/>
        <path id="path6" fill="#4f8dfd" fill-rule="evenodd" stroke="none" d="M 1153 21 L 1152 22 L 1152 238 L 1151 239 L 1150 238 L 1150 237 L 1149 237 L 1146 234 L 1146 233 L 1145 233 L 1057 145 L 1056 145 L 1055 144 L 1055 143 L 1053 141 L 1052 141 L 1050 139 L 1050 138 L 1044 132 L 1043 132 L 1042 131 L 1042 130 L 1040 128 L 1039 128 L 1037 126 L 1037 125 L 1036 125 L 1034 123 L 1034 122 L 1033 121 L 1032 121 L 1030 119 L 1030 118 L 1029 117 L 1028 117 L 1026 115 L 1026 114 L 1025 114 L 1011 100 L 1010 100 L 1008 98 L 1007 98 L 1006 97 L 1004 97 L 1003 96 L 995 96 L 994 97 L 992 97 L 991 98 L 990 98 L 988 100 L 987 100 L 985 102 L 985 103 L 984 104 L 984 105 L 983 106 L 983 107 L 982 108 L 982 111 L 981 112 L 981 296 L 1015 296 L 1015 156 L 1016 155 L 1114 253 L 1114 254 L 1115 254 L 1117 256 L 1117 257 L 1118 257 L 1121 260 L 1121 261 L 1122 262 L 1123 262 L 1126 265 L 1126 266 L 1127 266 L 1129 268 L 1129 269 L 1130 270 L 1131 270 L 1133 272 L 1133 273 L 1134 274 L 1135 274 L 1136 275 L 1136 276 L 1151 291 L 1152 291 L 1153 292 L 1153 293 L 1154 294 L 1155 294 L 1156 295 L 1157 295 L 1159 297 L 1160 297 L 1161 298 L 1163 298 L 1164 299 L 1172 299 L 1173 298 L 1175 298 L 1176 297 L 1177 297 L 1183 291 L 1183 289 L 1184 288 L 1184 287 L 1185 286 L 1185 283 L 1186 282 L 1186 52 L 1187 51 L 1240 51 L 1241 52 L 1241 342 L 1240 343 L 222 343 L 219 340 L 219 338 L 218 337 L 218 336 L 215 333 L 215 332 L 211 328 L 210 328 L 207 325 L 206 325 L 205 324 L 204 324 L 203 323 L 202 323 L 201 322 L 200 322 L 199 321 L 197 321 L 196 320 L 178 320 L 177 321 L 175 321 L 174 322 L 173 322 L 172 323 L 171 323 L 170 324 L 169 324 L 167 326 L 166 326 L 163 329 L 162 329 L 161 330 L 161 331 L 157 335 L 157 336 L 156 337 L 156 338 L 155 339 L 155 340 L 154 341 L 154 342 L 153 343 L 153 345 L 152 346 L 152 364 L 153 365 L 153 367 L 154 368 L 154 370 L 156 372 L 156 374 L 159 377 L 159 378 L 165 384 L 166 384 L 168 386 L 169 386 L 170 387 L 171 387 L 172 388 L 173 388 L 174 389 L 175 389 L 176 390 L 179 390 L 180 391 L 194 391 L 195 390 L 198 390 L 199 389 L 200 389 L 201 388 L 202 388 L 203 387 L 205 387 L 207 385 L 208 385 L 216 377 L 216 376 L 218 374 L 1271 374 L 1271 21 Z M 183 342 L 184 341 L 191 341 L 192 342 L 193 342 L 194 343 L 195 343 L 200 348 L 200 350 L 201 351 L 201 360 L 200 361 L 200 362 L 194 368 L 193 368 L 192 369 L 190 369 L 189 370 L 186 370 L 185 369 L 183 369 L 182 368 L 180 368 L 175 363 L 175 362 L 174 361 L 174 359 L 173 358 L 173 352 L 174 351 L 174 349 L 180 343 L 181 343 L 182 342 Z"/>
        <path id="path7" fill="#4f8dfd" fill-rule="evenodd" stroke="none" d="M 1070 0 L 1069 1 L 1066 1 L 1065 2 L 1064 2 L 1063 3 L 1062 3 L 1061 4 L 1060 4 L 1059 5 L 1058 5 L 1055 8 L 1054 8 L 1048 14 L 1048 15 L 1046 17 L 1046 18 L 1045 19 L 1045 20 L 1044 21 L 0 21 L 0 374 L 120 374 L 120 363 L 121 362 L 121 135 L 122 134 L 253 134 L 253 99 L 252 98 L 86 98 L 85 99 L 85 342 L 84 343 L 31 343 L 30 342 L 30 52 L 31 51 L 1044 51 L 1046 53 L 1046 54 L 1048 56 L 1048 57 L 1052 61 L 1052 62 L 1053 63 L 1054 63 L 1057 66 L 1058 66 L 1059 67 L 1060 67 L 1061 68 L 1062 68 L 1063 69 L 1064 69 L 1065 70 L 1067 70 L 1068 71 L 1086 71 L 1087 70 L 1089 70 L 1090 69 L 1091 69 L 1092 68 L 1093 68 L 1094 67 L 1095 67 L 1096 66 L 1097 66 L 1100 63 L 1101 63 L 1103 61 L 1103 60 L 1104 59 L 1105 59 L 1106 58 L 1106 57 L 1107 56 L 1107 55 L 1108 54 L 1108 53 L 1110 51 L 1110 50 L 1111 49 L 1111 46 L 1112 45 L 1112 40 L 1113 39 L 1113 33 L 1112 32 L 1112 27 L 1111 26 L 1111 23 L 1110 22 L 1110 20 L 1108 18 L 1108 17 L 1106 15 L 1106 14 L 1098 6 L 1097 6 L 1095 4 L 1093 4 L 1092 3 L 1091 3 L 1090 2 L 1089 2 L 1088 1 L 1085 1 L 1084 0 Z M 1075 22 L 1076 21 L 1079 21 L 1080 22 L 1082 22 L 1083 23 L 1084 23 L 1090 29 L 1090 30 L 1091 31 L 1091 32 L 1092 33 L 1092 38 L 1091 39 L 1091 40 L 1090 41 L 1090 42 L 1089 43 L 1089 44 L 1085 48 L 1084 48 L 1083 49 L 1081 49 L 1080 50 L 1074 50 L 1073 49 L 1072 49 L 1071 48 L 1070 48 L 1069 47 L 1068 47 L 1067 46 L 1067 45 L 1064 42 L 1064 41 L 1063 40 L 1063 32 L 1064 31 L 1064 29 L 1070 23 L 1072 23 L 1073 22 Z"/>
    </g>
</svg>
